<?xml version="1.0" standalone="no"?>
<!DOCTYPE svg PUBLIC "-//W3C//DTD SVG 20010904//EN"
 "http://www.w3.org/TR/2001/REC-SVG-20010904/DTD/svg10.dtd">
<svg version="1.0" xmlns="http://www.w3.org/2000/svg"
 width="140.000000pt" height="140.000000pt" viewBox="0 0 140.000000 140.000000"
 preserveAspectRatio="xMidYMid meet">
<metadata>
Created by potrace 1.15, written by Peter Selinger 2001-2017
</metadata>
<g transform="translate(0.000000,140.000000) scale(0.100000,-0.100000)"
fill="#000000" stroke="none">
<path d="M640 1179 c-241 -27 -420 -228 -422 -473 -1 -138 46 -249 145 -348
176 -176 461 -197 647 -49 67 53 87 79 126 160 33 68 36 84 41 186 4 73 2 125
-6 151 -56 185 -179 313 -341 357 -77 21 -115 24 -190 16z m125 -121 c3 -13 4
-120 3 -238 l-3 -215 -62 -3 -63 -3 0 241 0 240 60 0 c54 0 60 -2 65 -22z
m-195 -76 c0 -65 -2 -70 -36 -103 -103 -98 -99 -261 10 -356 69 -60 153 -77
237 -48 62 22 101 56 134 116 53 98 34 208 -49 288 -34 33 -36 38 -36 103 0
45 4 68 12 68 25 0 99 -53 142 -102 65 -75 90 -142 90 -249 0 -77 -3 -93 -32
-152 -37 -75 -117 -155 -190 -188 -38 -18 -67 -22 -147 -23 -88 -1 -106 2
-155 25 -194 92 -275 310 -186 504 26 57 93 131 148 165 53 32 58 28 58 -48z"/>
</g>
</svg>
